<svg width="78" height="32" viewBox="0 0 78 32" fill="none" xmlns="http://www.w3.org/2000/svg">
<path opacity="0.9" d="M3.63562 7.27271C3.63562 5.26441 5.26337 3.63635 7.2713 3.63635H24.7225C26.7305 3.63635 28.3582 5.26441 28.3582 7.27272V24.7273C28.3582 26.7356 26.7305 28.3636 24.7225 28.3636H7.27129C5.26337 28.3636 3.63562 26.7356 3.63562 24.7273V7.27271Z" fill="#36F5D5"/>
<path opacity="0.9" fill-rule="evenodd" clip-rule="evenodd" d="M7.27135 0H24.7226C28.7385 0 31.9939 3.25611 31.9939 7.27273V24.7273C31.9939 28.7439 28.7385 32 24.7226 32H7.27135C3.25549 32 0 28.7439 0 24.7273V7.27272C0 3.2561 3.2555 0 7.27135 0ZM7.27135 3.63636C5.26342 3.63636 3.63568 5.26442 3.63568 7.27272V24.7273C3.63568 26.7356 5.26342 28.3636 7.27135 28.3636H24.7226C26.7305 28.3636 28.3583 26.7356 28.3583 24.7273V7.27273C28.3583 5.26442 26.7305 3.63636 24.7226 3.63636H7.27135Z" fill="#12BFA2"/>
<path d="M19.6851 7.76229C19.8977 7.88984 19.997 8.15174 19.9247 8.3942L18.0199 14.7792H21.5345C21.7455 14.7792 21.9363 14.9086 22.02 15.1083C22.1037 15.3081 22.0642 15.5401 21.9196 15.6985L13.4584 24.9712C13.2899 25.156 13.0201 25.1964 12.8075 25.0689C12.5948 24.9414 12.4956 24.6795 12.5679 24.437L14.4726 18.052H10.958C10.7471 18.052 10.5563 17.9226 10.4726 17.7229C10.3889 17.5231 10.4283 17.2911 10.5729 17.1327L19.0341 7.85996C19.2027 7.67523 19.4725 7.63475 19.6851 7.76229Z" fill="#00A388"/>
<path d="M61.2491 13.0244C61.2491 11.8365 61.5884 10.9117 62.2671 10.2499C62.9627 9.58805 63.9213 9.25714 65.1429 9.25714H69.673C72.201 9.25714 74.1097 9.74926 75.3991 10.7335C76.6886 11.7177 77.3333 13.1856 77.3333 15.1371C77.3333 16.9529 76.7904 18.3699 75.7045 19.3881C74.6356 20.4062 73.1935 20.9153 71.3781 20.9153L75.2464 24.759C75.5518 25.0644 75.7045 25.4123 75.7045 25.8026C75.7045 26.2099 75.5264 26.5662 75.1701 26.8717C74.7968 27.1602 74.4321 27.3044 74.0758 27.3044C73.5837 27.3044 73.1341 27.0838 72.7269 26.6426L67.2298 21.0171H64.6339V25.8026C64.6339 26.2778 64.4727 26.6511 64.1504 26.9226C63.828 27.1941 63.4208 27.3299 62.9288 27.3299C62.4198 27.3299 62.0126 27.1941 61.7072 26.9226C61.4018 26.6511 61.2491 26.2778 61.2491 25.8026V13.0244ZM69.5711 18.3953C70.6909 18.3953 71.5647 18.285 72.1925 18.0644C72.8202 17.8438 73.2614 17.5044 73.5159 17.0462C73.7873 16.5711 73.9231 15.9347 73.9231 15.1371C73.9231 13.9832 73.5668 13.1517 72.8542 12.6426C72.1585 12.1335 71.0642 11.879 69.5711 11.879H65.7282C65.3889 11.879 65.1174 11.9893 64.9138 12.2099C64.7272 12.4305 64.6339 12.7359 64.6339 13.1262V18.3953H69.5711Z" fill="#00A388"/>
<path d="M45.8113 27.0753C44.5218 27.0753 43.5208 26.7359 42.8082 26.0571C42.0956 25.3784 41.7393 24.4281 41.7393 23.2062V13.0244C41.7393 11.8365 42.0786 10.9117 42.7573 10.2499C43.4529 9.58805 44.4115 9.25714 45.6331 9.25714H49.1961C51.1472 9.25714 52.8354 9.6135 54.2606 10.3262C55.6858 11.039 56.7716 12.0656 57.5182 13.4062C58.2816 14.7468 58.6634 16.342 58.6634 18.1917C58.6634 20.0414 58.2816 21.6365 57.5182 22.9771C56.7716 24.3008 55.6858 25.319 54.2606 26.0317C52.8524 26.7274 51.1642 27.0753 49.1961 27.0753H45.8113ZM48.9416 24.4535C51.0624 24.4535 52.6403 23.9444 53.6752 22.9262C54.7102 21.8911 55.2277 20.3129 55.2277 18.1917C55.2277 16.0705 54.7017 14.4923 53.6498 13.4571C52.6148 12.405 51.0454 11.879 48.9416 11.879H46.2185C45.8791 11.879 45.6077 11.9893 45.4041 12.2099C45.2174 12.4305 45.1241 12.7359 45.1241 13.1262V23.2062C45.1241 23.5965 45.2174 23.902 45.4041 24.1226C45.6077 24.3432 45.8791 24.4535 46.2185 24.4535H48.9416Z" fill="#00A388"/>
<path d="M37.2548 27.0753C36.661 27.0753 36.1689 26.8887 35.7787 26.5153C35.3885 26.142 35.1934 25.6923 35.1934 25.1662C35.1934 24.6062 35.3885 24.1396 35.7787 23.7662C36.1689 23.3759 36.661 23.1808 37.2548 23.1808C37.8486 23.1808 38.3322 23.3759 38.7054 23.7662C39.0956 24.1565 39.2908 24.6232 39.2908 25.1662C39.2908 25.6923 39.0956 26.142 38.7054 26.5153C38.3322 26.8887 37.8486 27.0753 37.2548 27.0753Z" fill="#00A388"/>
</svg>
